{
	"asset":{
		"generator":"Khronos glTF Blender I/O v3.6.27",
		"version":"2.0"
	},
	"scene":0,
	"scenes":[
		{
			"name":"Scene",
			"nodes":[
				0,
				1,
				2,
				3,
				4,
				5,
				6
			]
		}
	],
	"nodes":[
		{
			"mesh":0,
			"name":"Sphere",
			"translation":[
				0,
				0.5,
				-0.4000000059604645
			]
		},
		{
			"mesh":1,
			"name":"Cube",
			"translation":[
				0.550000011920929,
				0.5,
				-0.4000000059604645
			]
		},
		{
			"mesh":2,
			"name":"Cube.001",
			"translation":[
				-0.550000011920929,
				0.5,
				-0.4000000059604645
			]
		},
		{
			"mesh":3,
			"name":"Sphere.001",
			"translation":[
				0,
				0.5,
				-0.4000000059604645
			]
		},
		{
			"mesh":4,
			"name":"Cube.002",
			"translation":[
				0,
				0.14000000059604645,
				0.4000000059604645
			]
		},
		{
			"mesh":5,
			"name":"Cube.003",
			"scale":[
				0.550000011920929,
				0.10000000149011612,
				0.25
			],
			"translation":[
				0,
				0.10000000149011612,
				0.4000000059604645
			]
		},
		{
			"mesh":6,
			"name":"Cube.005",
			"scale":[
				0.800000011920929,
				0.5,
				0.75
			],
			"translation":[
				0,
				0.10000000149011612,
				0.4000000059604645
			]
		}
	],
	"materials":[
		{
			"doubleSided":true,
			"name":"Material",
			"pbrMetallicRoughness":{
				"baseColorFactor":[
					0.08418116718530655,
					0.08418116718530655,
					0.08418116718530655,
					1
				],
				"metallicFactor":0.5243242979049683,
				"roughnessFactor":0.7270270586013794
			}
		},
		{
			"doubleSided":true,
			"emissiveFactor":[
				1,
				0.64000004529953,
				0.10000002384185791
			],
			"name":"Lava",
			"pbrMetallicRoughness":{
				"baseColorFactor":[
					1,
					0.64000004529953,
					0.10000002384185791,
					1
				],
				"metallicFactor":0,
				"roughnessFactor":0.5
			}
		}
	],
	"meshes":[
		{
			"name":"Sphere",
			"primitives":[
				{
					"attributes":{
						"POSITION":0,
						"NORMAL":1,
						"TEXCOORD_0":2
					},
					"indices":3,
					"material":0
				},
				{
					"attributes":{
						"POSITION":4,
						"NORMAL":5,
						"TEXCOORD_0":6
					},
					"indices":7,
					"material":0
				}
			]
		},
		{
			"name":"Cube.001",
			"primitives":[
				{
					"attributes":{
						"POSITION":8,
						"NORMAL":9,
						"TEXCOORD_0":10
					},
					"indices":11,
					"material":0
				}
			]
		},
		{
			"name":"Cube.002",
			"primitives":[
				{
					"attributes":{
						"POSITION":12,
						"NORMAL":13,
						"TEXCOORD_0":14
					},
					"indices":11,
					"material":0
				}
			]
		},
		{
			"name":"Sphere.002",
			"primitives":[
				{
					"attributes":{
						"POSITION":15,
						"NORMAL":16,
						"TEXCOORD_0":17
					},
					"indices":18,
					"material":1
				}
			]
		},
		{
			"name":"Cube.003",
			"primitives":[
				{
					"attributes":{
						"POSITION":19,
						"NORMAL":20,
						"TEXCOORD_0":21
					},
					"indices":22,
					"material":0
				},
				{
					"attributes":{
						"POSITION":23,
						"NORMAL":24,
						"TEXCOORD_0":25
					},
					"indices":26,
					"material":0
				}
			]
		},
		{
			"name":"Cube.004",
			"primitives":[
				{
					"attributes":{
						"POSITION":27,
						"NORMAL":28,
						"TEXCOORD_0":29
					},
					"indices":30,
					"material":0
				}
			]
		},
		{
			"name":"Cube.007",
			"primitives":[
				{
					"attributes":{
						"POSITION":31,
						"NORMAL":32,
						"TEXCOORD_0":33
					},
					"indices":34,
					"material":1
				},
				{
					"attributes":{
						"POSITION":35,
						"NORMAL":36,
						"TEXCOORD_0":37
					},
					"indices":38,
					"material":1
				}
			]
		}
	],
	"accessors":[
		{
			"bufferView":0,
			"componentType":5126,
			"count":1256,
			"max":[
				0.49999985098838806,
				0.49999988079071045,
				0.5999996662139893
			],
			"min":[
				-0.4999995231628418,
				-0.5,
				-0.5
			],
			"type":"VEC3"
		},
		{
			"bufferView":1,
			"componentType":5126,
			"count":1256,
			"type":"VEC3"
		},
		{
			"bufferView":2,
			"componentType":5126,
			"count":1256,
			"type":"VEC2"
		},
		{
			"bufferView":3,
			"componentType":5123,
			"count":2016,
			"type":"SCALAR"
		},
		{
			"bufferView":4,
			"componentType":5126,
			"count":1192,
			"max":[
				0.3999998867511749,
				0.49999988079071045,
				0.4999997317790985
			],
			"min":[
				-0.39999961853027344,
				-0.4000000059604645,
				-0.4000000059604645
			],
			"type":"VEC3"
		},
		{
			"bufferView":5,
			"componentType":5126,
			"count":1192,
			"type":"VEC3"
		},
		{
			"bufferView":6,
			"componentType":5126,
			"count":1192,
			"type":"VEC2"
		},
		{
			"bufferView":7,
			"componentType":5123,
			"count":1824,
			"type":"SCALAR"
		},
		{
			"bufferView":8,
			"componentType":5126,
			"count":24,
			"max":[
				0.05000000074505806,
				0.5,
				0.09999999403953552
			],
			"min":[
				-0.05000000074505806,
				-0.5,
				-0.09999999403953552
			],
			"type":"VEC3"
		},
		{
			"bufferView":9,
			"componentType":5126,
			"count":24,
			"type":"VEC3"
		},
		{
			"bufferView":10,
			"componentType":5126,
			"count":24,
			"type":"VEC2"
		},
		{
			"bufferView":11,
			"componentType":5123,
			"count":36,
			"type":"SCALAR"
		},
		{
			"bufferView":12,
			"componentType":5126,
			"count":24,
			"max":[
				0.05000000074505806,
				0.5,
				0.09999999403953552
			],
			"min":[
				-0.05000000074505806,
				-0.5,
				-0.09999999403953552
			],
			"type":"VEC3"
		},
		{
			"bufferView":13,
			"componentType":5126,
			"count":24,
			"type":"VEC3"
		},
		{
			"bufferView":14,
			"componentType":5126,
			"count":24,
			"type":"VEC2"
		},
		{
			"bufferView":15,
			"componentType":5126,
			"count":1152,
			"max":[
				0.3999998867511749,
				0.31999993324279785,
				0.399999737739563
			],
			"min":[
				-0.39999961853027344,
				-0.4000000059604645,
				-0.4000000059604645
			],
			"type":"VEC3"
		},
		{
			"bufferView":16,
			"componentType":5126,
			"count":1152,
			"type":"VEC3"
		},
		{
			"bufferView":17,
			"componentType":5126,
			"count":1152,
			"type":"VEC2"
		},
		{
			"bufferView":18,
			"componentType":5123,
			"count":1722,
			"type":"SCALAR"
		},
		{
			"bufferView":19,
			"componentType":5126,
			"count":188,
			"max":[
				0.5,
				0.10000000149011612,
				0.20000000298023224
			],
			"min":[
				-0.5,
				-0.10000000149011612,
				-0.20000000298023224
			],
			"type":"VEC3"
		},
		{
			"bufferView":20,
			"componentType":5126,
			"count":188,
			"type":"VEC3"
		},
		{
			"bufferView":21,
			"componentType":5126,
			"count":188,
			"type":"VEC2"
		},
		{
			"bufferView":22,
			"componentType":5123,
			"count":396,
			"type":"SCALAR"
		},
		{
			"bufferView":23,
			"componentType":5126,
			"count":64,
			"max":[
				-0.2800000309944153,
				0.10000000149011612,
				0.1199999749660492
			],
			"min":[
				-0.4000000059604645,
				-0.09000000357627869,
				-0.1199999749660492
			],
			"type":"VEC3"
		},
		{
			"bufferView":24,
			"componentType":5126,
			"count":64,
			"type":"VEC3"
		},
		{
			"bufferView":25,
			"componentType":5126,
			"count":64,
			"type":"VEC2"
		},
		{
			"bufferView":26,
			"componentType":5123,
			"count":96,
			"type":"SCALAR"
		},
		{
			"bufferView":27,
			"componentType":5126,
			"count":48,
			"max":[
				0.9999999403953552,
				0.9999999403953552,
				0.9999999403953552
			],
			"min":[
				-0.9999999403953552,
				-0.9999999403953552,
				-0.9999999403953552
			],
			"type":"VEC3"
		},
		{
			"bufferView":28,
			"componentType":5126,
			"count":48,
			"type":"VEC3"
		},
		{
			"bufferView":29,
			"componentType":5126,
			"count":48,
			"type":"VEC2"
		},
		{
			"bufferView":30,
			"componentType":5123,
			"count":84,
			"type":"SCALAR"
		},
		{
			"bufferView":31,
			"componentType":5126,
			"count":164,
			"max":[
				0.5,
				0.10000000149011612,
				0.19999997317790985
			],
			"min":[
				-0.5,
				-0.10000000149011612,
				-0.19999997317790985
			],
			"type":"VEC3"
		},
		{
			"bufferView":32,
			"componentType":5126,
			"count":164,
			"type":"VEC3"
		},
		{
			"bufferView":33,
			"componentType":5126,
			"count":164,
			"type":"VEC2"
		},
		{
			"bufferView":34,
			"componentType":5123,
			"count":348,
			"type":"SCALAR"
		},
		{
			"bufferView":35,
			"componentType":5126,
			"count":64,
			"max":[
				-0.3500000238418579,
				0.10000000149011612,
				0.15999996662139893
			],
			"min":[
				-0.5,
				-0.10000000149011612,
				-0.15999996662139893
			],
			"type":"VEC3"
		},
		{
			"bufferView":36,
			"componentType":5126,
			"count":64,
			"type":"VEC3"
		},
		{
			"bufferView":37,
			"componentType":5126,
			"count":64,
			"type":"VEC2"
		},
		{
			"bufferView":38,
			"componentType":5123,
			"count":96,
			"type":"SCALAR"
		}
	],
	"bufferViews":[
		{
			"buffer":0,
			"byteLength":15072,
			"byteOffset":0,
			"target":34962
		},
		{
			"buffer":0,
			"byteLength":15072,
			"byteOffset":15072,
			"target":34962
		},
		{
			"buffer":0,
			"byteLength":10048,
			"byteOffset":30144,
			"target":34962
		},
		{
			"buffer":0,
			"byteLength":4032,
			"byteOffset":40192,
			"target":34963
		},
		{
			"buffer":0,
			"byteLength":14304,
			"byteOffset":44224,
			"target":34962
		},
		{
			"buffer":0,
			"byteLength":14304,
			"byteOffset":58528,
			"target":34962
		},
		{
			"buffer":0,
			"byteLength":9536,
			"byteOffset":72832,
			"target":34962
		},
		{
			"buffer":0,
			"byteLength":3648,
			"byteOffset":82368,
			"target":34963
		},
		{
			"buffer":0,
			"byteLength":288,
			"byteOffset":86016,
			"target":34962
		},
		{
			"buffer":0,
			"byteLength":288,
			"byteOffset":86304,
			"target":34962
		},
		{
			"buffer":0,
			"byteLength":192,
			"byteOffset":86592,
			"target":34962
		},
		{
			"buffer":0,
			"byteLength":72,
			"byteOffset":86784,
			"target":34963
		},
		{
			"buffer":0,
			"byteLength":288,
			"byteOffset":86856,
			"target":34962
		},
		{
			"buffer":0,
			"byteLength":288,
			"byteOffset":87144,
			"target":34962
		},
		{
			"buffer":0,
			"byteLength":192,
			"byteOffset":87432,
			"target":34962
		},
		{
			"buffer":0,
			"byteLength":13824,
			"byteOffset":87624,
			"target":34962
		},
		{
			"buffer":0,
			"byteLength":13824,
			"byteOffset":101448,
			"target":34962
		},
		{
			"buffer":0,
			"byteLength":9216,
			"byteOffset":115272,
			"target":34962
		},
		{
			"buffer":0,
			"byteLength":3444,
			"byteOffset":124488,
			"target":34963
		},
		{
			"buffer":0,
			"byteLength":2256,
			"byteOffset":127932,
			"target":34962
		},
		{
			"buffer":0,
			"byteLength":2256,
			"byteOffset":130188,
			"target":34962
		},
		{
			"buffer":0,
			"byteLength":1504,
			"byteOffset":132444,
			"target":34962
		},
		{
			"buffer":0,
			"byteLength":792,
			"byteOffset":133948,
			"target":34963
		},
		{
			"buffer":0,
			"byteLength":768,
			"byteOffset":134740,
			"target":34962
		},
		{
			"buffer":0,
			"byteLength":768,
			"byteOffset":135508,
			"target":34962
		},
		{
			"buffer":0,
			"byteLength":512,
			"byteOffset":136276,
			"target":34962
		},
		{
			"buffer":0,
			"byteLength":192,
			"byteOffset":136788,
			"target":34963
		},
		{
			"buffer":0,
			"byteLength":576,
			"byteOffset":136980,
			"target":34962
		},
		{
			"buffer":0,
			"byteLength":576,
			"byteOffset":137556,
			"target":34962
		},
		{
			"buffer":0,
			"byteLength":384,
			"byteOffset":138132,
			"target":34962
		},
		{
			"buffer":0,
			"byteLength":168,
			"byteOffset":138516,
			"target":34963
		},
		{
			"buffer":0,
			"byteLength":1968,
			"byteOffset":138684,
			"target":34962
		},
		{
			"buffer":0,
			"byteLength":1968,
			"byteOffset":140652,
			"target":34962
		},
		{
			"buffer":0,
			"byteLength":1312,
			"byteOffset":142620,
			"target":34962
		},
		{
			"buffer":0,
			"byteLength":696,
			"byteOffset":143932,
			"target":34963
		},
		{
			"buffer":0,
			"byteLength":768,
			"byteOffset":144628,
			"target":34962
		},
		{
			"buffer":0,
			"byteLength":768,
			"byteOffset":145396,
			"target":34962
		},
		{
			"buffer":0,
			"byteLength":512,
			"byteOffset":146164,
			"target":34962
		},
		{
			"buffer":0,
			"byteLength":192,
			"byteOffset":146676,
			"target":34963
		}
	],
	"buffers":[
		{
			"byteLength":146868,
			"uri":"steel_furnace.bin"
		}
	]
}
