{
	"asset":{
		"generator":"Khronos glTF Blender I/O v3.6.27",
		"version":"2.0"
	},
	"scene":0,
	"scenes":[
		{
			"name":"Scene",
			"nodes":[
				0,
				1,
				2,
				3,
				4,
				5,
				6,
				7,
				8,
				9,
				10,
				11,
				12,
				13,
				14,
				15,
				16
			]
		}
	],
	"nodes":[
		{
			"mesh":0,
			"name":"Cylinder",
			"translation":[
				-0.47578269243240356,
				0.5544388294219971,
				0.4267057776451111
			]
		},
		{
			"mesh":1,
			"name":"Cylinder.001",
			"translation":[
				0.42462390661239624,
				0.5544388294219971,
				0.4267057776451111
			]
		},
		{
			"mesh":2,
			"name":"Cylinder.002",
			"translation":[
				-0.47578269243240356,
				0.800000011920929,
				-0.4737008213996887
			]
		},
		{
			"mesh":3,
			"name":"Cylinder.003",
			"rotation":[
				0,
				0,
				0.4226182699203491,
				0.9063078165054321
			],
			"translation":[
				-0.025579385459423065,
				0.5319286584854126,
				0.4267057776451111
			]
		},
		{
			"mesh":4,
			"name":"Cylinder.005",
			"rotation":[
				0,
				0,
				-0.7071068286895752,
				0.7071068286895752
			],
			"translation":[
				-0.025579385459423065,
				0.9296082258224487,
				0.4267057776451111
			]
		},
		{
			"mesh":5,
			"name":"Cylinder.006",
			"rotation":[
				-0.5,
				0.5,
				-0.5,
				0.5000000596046448
			],
			"translation":[
				-0.47578269243240356,
				0.9296082258224487,
				-0.023497529327869415
			]
		},
		{
			"mesh":6,
			"name":"Cylinder.008",
			"rotation":[
				0,
				0,
				-0.5,
				0.8660253882408142
			],
			"translation":[
				-0.2131640911102295,
				1.0797735452651978,
				-0.4737008213996887
			]
		},
		{
			"mesh":7,
			"name":"Cube.001",
			"translation":[
				-0.025579385459423065,
				0.07999999821186066,
				-0.023497529327869415
			]
		},
		{
			"mesh":8,
			"name":"Cylinder.010",
			"translation":[
				0.349590003490448,
				0.10000000149011612,
				-0.369229257106781
			]
		},
		{
			"mesh":9,
			"name":"Cube.002",
			"translation":[
				-0.17564713954925537,
				0.4000000059604645,
				0.014019414782524109
			]
		},
		{
			"mesh":10,
			"name":"Cylinder.011",
			"translation":[
				0.16200530529022217,
				1.109052300453186,
				-0.4737008213996887
			]
		},
		{
			"mesh":11,
			"name":"Cylinder.012",
			"rotation":[
				0,
				0,
				-0.7071068286895752,
				0.7071068286895752
			],
			"translation":[
				0.16200530529022217,
				0.8929212093353271,
				-0.4737008213996887
			]
		},
		{
			"mesh":12,
			"name":"Cylinder.009",
			"rotation":[
				0,
				0,
				-0.7875782251358032,
				0.6162148714065552
			],
			"translation":[
				-0.16946326196193695,
				1.4027036428451538,
				-0.4737008213996887
			]
		},
		{
			"mesh":13,
			"name":"Cylinder.013",
			"rotation":[
				-0.5,
				0.5,
				-0.5,
				0.5000000596046448
			],
			"translation":[
				0.08697142452001572,
				1.2589848041534424,
				-0.4737008213996887
			]
		},
		{
			"mesh":14,
			"name":"Cube.003",
			"translation":[
				0.08697142452001572,
				0.4000000059604645,
				0.014019414782524109
			]
		},
		{
			"mesh":15,
			"name":"Cylinder.004",
			"rotation":[
				0.29883626103401184,
				0.6408563852310181,
				0.29883623123168945,
				0.6408564448356628
			],
			"translation":[
				-0.47578269243240356,
				0.5319286584854126,
				-0.023497529327869415
			]
		},
		{
			"mesh":16,
			"name":"Cylinder.007",
			"rotation":[
				-0.5,
				0,
				0,
				0.8660253882408142
			],
			"translation":[
				-0.47578269243240356,
				1.2046151161193848,
				-0.016829269006848335
			]
		}
	],
	"materials":[
		{
			"doubleSided":true,
			"name":"Steel",
			"pbrMetallicRoughness":{
				"baseColorFactor":[
					0.17434871196746826,
					0.17434871196746826,
					0.17434871196746826,
					1
				],
				"roughnessFactor":0.7864865064620972
			}
		},
		{
			"doubleSided":true,
			"name":"Steel2",
			"pbrMetallicRoughness":{
				"baseColorFactor":[
					0.5537236332893372,
					0.5537236332893372,
					0.5537236332893372,
					1
				],
				"roughnessFactor":0.6702703237533569
			}
		},
		{
			"doubleSided":true,
			"name":"Steel3",
			"pbrMetallicRoughness":{
				"metallicFactor":0,
				"roughnessFactor":0.4216216206550598
			}
		}
	],
	"meshes":[
		{
			"name":"Cylinder",
			"primitives":[
				{
					"attributes":{
						"POSITION":0,
						"NORMAL":1,
						"TEXCOORD_0":2
					},
					"indices":3,
					"material":0
				}
			]
		},
		{
			"name":"Cylinder.001",
			"primitives":[
				{
					"attributes":{
						"POSITION":4,
						"NORMAL":5,
						"TEXCOORD_0":6
					},
					"indices":3,
					"material":0
				}
			]
		},
		{
			"name":"Cylinder.002",
			"primitives":[
				{
					"attributes":{
						"POSITION":7,
						"NORMAL":8,
						"TEXCOORD_0":9
					},
					"indices":3,
					"material":0
				}
			]
		},
		{
			"name":"Cylinder.003",
			"primitives":[
				{
					"attributes":{
						"POSITION":10,
						"NORMAL":11,
						"TEXCOORD_0":12
					},
					"indices":3,
					"material":0
				}
			]
		},
		{
			"name":"Cylinder.005",
			"primitives":[
				{
					"attributes":{
						"POSITION":13,
						"NORMAL":14,
						"TEXCOORD_0":15
					},
					"indices":3,
					"material":0
				}
			]
		},
		{
			"name":"Cylinder.006",
			"primitives":[
				{
					"attributes":{
						"POSITION":16,
						"NORMAL":17,
						"TEXCOORD_0":18
					},
					"indices":3,
					"material":0
				}
			]
		},
		{
			"name":"Cylinder.008",
			"primitives":[
				{
					"attributes":{
						"POSITION":19,
						"NORMAL":20,
						"TEXCOORD_0":21
					},
					"indices":3,
					"material":0
				}
			]
		},
		{
			"name":"Cube.002",
			"primitives":[
				{
					"attributes":{
						"POSITION":22,
						"NORMAL":23,
						"TEXCOORD_0":24
					},
					"indices":25,
					"material":1
				}
			]
		},
		{
			"name":"Cylinder.010",
			"primitives":[
				{
					"attributes":{
						"POSITION":26,
						"NORMAL":27,
						"TEXCOORD_0":28
					},
					"indices":29,
					"material":2
				}
			]
		},
		{
			"name":"Cube.003",
			"primitives":[
				{
					"attributes":{
						"POSITION":30,
						"NORMAL":31,
						"TEXCOORD_0":32
					},
					"indices":33,
					"material":1
				}
			]
		},
		{
			"name":"Cylinder.011",
			"primitives":[
				{
					"attributes":{
						"POSITION":34,
						"NORMAL":35,
						"TEXCOORD_0":36
					},
					"indices":3,
					"material":1
				}
			]
		},
		{
			"name":"Cylinder.012",
			"primitives":[
				{
					"attributes":{
						"POSITION":37,
						"NORMAL":38,
						"TEXCOORD_0":39
					},
					"indices":3
				}
			]
		},
		{
			"name":"Cylinder.013",
			"primitives":[
				{
					"attributes":{
						"POSITION":40,
						"NORMAL":41,
						"TEXCOORD_0":42
					},
					"indices":3,
					"material":1
				}
			]
		},
		{
			"name":"Cylinder.014",
			"primitives":[
				{
					"attributes":{
						"POSITION":43,
						"NORMAL":44,
						"TEXCOORD_0":45
					},
					"indices":3,
					"material":0
				}
			]
		},
		{
			"name":"Cube.004",
			"primitives":[
				{
					"attributes":{
						"POSITION":46,
						"NORMAL":47,
						"TEXCOORD_0":48
					},
					"indices":33,
					"material":1
				}
			]
		},
		{
			"name":"Cylinder.009",
			"primitives":[
				{
					"attributes":{
						"POSITION":49,
						"NORMAL":50,
						"TEXCOORD_0":51
					},
					"indices":3,
					"material":0
				}
			]
		},
		{
			"name":"Cylinder.015",
			"primitives":[
				{
					"attributes":{
						"POSITION":52,
						"NORMAL":53,
						"TEXCOORD_0":54
					},
					"indices":3,
					"material":0
				}
			]
		}
	],
	"accessors":[
		{
			"bufferView":0,
			"componentType":5126,
			"count":192,
			"max":[
				0.037516940385103226,
				0.37516939640045166,
				0.037516940385103226
			],
			"min":[
				-0.037516940385103226,
				-0.37516939640045166,
				-0.037516940385103226
			],
			"type":"VEC3"
		},
		{
			"bufferView":1,
			"componentType":5126,
			"count":192,
			"type":"VEC3"
		},
		{
			"bufferView":2,
			"componentType":5126,
			"count":192,
			"type":"VEC2"
		},
		{
			"bufferView":3,
			"componentType":5123,
			"count":372,
			"type":"SCALAR"
		},
		{
			"bufferView":4,
			"componentType":5126,
			"count":192,
			"max":[
				0.037516940385103226,
				0.37516939640045166,
				0.037516940385103226
			],
			"min":[
				-0.037516940385103226,
				-0.37516939640045166,
				-0.037516940385103226
			],
			"type":"VEC3"
		},
		{
			"bufferView":5,
			"componentType":5126,
			"count":192,
			"type":"VEC3"
		},
		{
			"bufferView":6,
			"componentType":5126,
			"count":192,
			"type":"VEC2"
		},
		{
			"bufferView":7,
			"componentType":5126,
			"count":192,
			"max":[
				0.037516940385103226,
				0.6499999761581421,
				0.037516940385103226
			],
			"min":[
				-0.037516940385103226,
				-0.6499999761581421,
				-0.037516940385103226
			],
			"type":"VEC3"
		},
		{
			"bufferView":8,
			"componentType":5126,
			"count":192,
			"type":"VEC3"
		},
		{
			"bufferView":9,
			"componentType":5126,
			"count":192,
			"type":"VEC2"
		},
		{
			"bufferView":10,
			"componentType":5126,
			"count":192,
			"max":[
				0.037516940385103226,
				0.6002710461616516,
				0.037516940385103226
			],
			"min":[
				-0.037516940385103226,
				-0.6002710461616516,
				-0.037516940385103226
			],
			"type":"VEC3"
		},
		{
			"bufferView":11,
			"componentType":5126,
			"count":192,
			"type":"VEC3"
		},
		{
			"bufferView":12,
			"componentType":5126,
			"count":192,
			"type":"VEC2"
		},
		{
			"bufferView":13,
			"componentType":5126,
			"count":192,
			"max":[
				0.037516940385103226,
				0.4502032995223999,
				0.037516940385103226
			],
			"min":[
				-0.037516940385103226,
				-0.4502032995223999,
				-0.037516940385103226
			],
			"type":"VEC3"
		},
		{
			"bufferView":14,
			"componentType":5126,
			"count":192,
			"type":"VEC3"
		},
		{
			"bufferView":15,
			"componentType":5126,
			"count":192,
			"type":"VEC2"
		},
		{
			"bufferView":16,
			"componentType":5126,
			"count":192,
			"max":[
				0.037516940385103226,
				0.4502032995223999,
				0.037516940385103226
			],
			"min":[
				-0.037516940385103226,
				-0.4502032995223999,
				-0.037516940385103226
			],
			"type":"VEC3"
		},
		{
			"bufferView":17,
			"componentType":5126,
			"count":192,
			"type":"VEC3"
		},
		{
			"bufferView":18,
			"componentType":5126,
			"count":192,
			"type":"VEC2"
		},
		{
			"bufferView":19,
			"componentType":5126,
			"count":192,
			"max":[
				0.037516944110393524,
				0.30000004172325134,
				0.037516940385103226
			],
			"min":[
				-0.037516944110393524,
				-0.30000004172325134,
				-0.037516940385103226
			],
			"type":"VEC3"
		},
		{
			"bufferView":20,
			"componentType":5126,
			"count":192,
			"type":"VEC3"
		},
		{
			"bufferView":21,
			"componentType":5126,
			"count":192,
			"type":"VEC2"
		},
		{
			"bufferView":22,
			"componentType":5126,
			"count":24,
			"max":[
				0.6002710461616516,
				0.07999999821186066,
				0.6002710461616516
			],
			"min":[
				-0.6002710461616516,
				-0.07999999821186066,
				-0.6002710461616516
			],
			"type":"VEC3"
		},
		{
			"bufferView":23,
			"componentType":5126,
			"count":24,
			"type":"VEC3"
		},
		{
			"bufferView":24,
			"componentType":5126,
			"count":24,
			"type":"VEC2"
		},
		{
			"bufferView":25,
			"componentType":5123,
			"count":36,
			"type":"SCALAR"
		},
		{
			"bufferView":26,
			"componentType":5126,
			"count":1088,
			"max":[
				0.1500677615404129,
				0.654455304145813,
				0.5401510000228882
			],
			"min":[
				-0.6736088395118713,
				0.018690556287765503,
				-0.1500677615404129
			],
			"type":"VEC3"
		},
		{
			"bufferView":27,
			"componentType":5126,
			"count":1088,
			"type":"VEC3"
		},
		{
			"bufferView":28,
			"componentType":5126,
			"count":1088,
			"type":"VEC2"
		},
		{
			"bufferView":29,
			"componentType":5123,
			"count":1716,
			"type":"SCALAR"
		},
		{
			"bufferView":30,
			"componentType":5126,
			"count":36,
			"max":[
				0.07503388077020645,
				0.40518298745155334,
				0.22510164976119995
			],
			"min":[
				-0.07503388077020645,
				-0.25099581480026245,
				-0.22510164976119995
			],
			"type":"VEC3"
		},
		{
			"bufferView":31,
			"componentType":5126,
			"count":36,
			"type":"VEC3"
		},
		{
			"bufferView":32,
			"componentType":5126,
			"count":36,
			"type":"VEC2"
		},
		{
			"bufferView":33,
			"componentType":5123,
			"count":60,
			"type":"SCALAR"
		},
		{
			"bufferView":34,
			"componentType":5126,
			"count":192,
			"max":[
				0.015006775967776775,
				0.22510164976119995,
				0.015006775967776775
			],
			"min":[
				-0.015006775967776775,
				-0.22510164976119995,
				-0.015006775967776775
			],
			"type":"VEC3"
		},
		{
			"bufferView":35,
			"componentType":5126,
			"count":192,
			"type":"VEC3"
		},
		{
			"bufferView":36,
			"componentType":5126,
			"count":192,
			"type":"VEC2"
		},
		{
			"bufferView":37,
			"componentType":5126,
			"count":192,
			"max":[
				0.037516940385103226,
				0.22510164976119995,
				0.037516940385103226
			],
			"min":[
				-0.037516940385103226,
				-0.22510164976119995,
				-0.037516940385103226
			],
			"type":"VEC3"
		},
		{
			"bufferView":38,
			"componentType":5126,
			"count":192,
			"type":"VEC3"
		},
		{
			"bufferView":39,
			"componentType":5126,
			"count":192,
			"type":"VEC2"
		},
		{
			"bufferView":40,
			"componentType":5126,
			"count":192,
			"max":[
				0.015006775967776775,
				0.33765244483947754,
				0.015006775967776775
			],
			"min":[
				-0.015006775967776775,
				-0.33765244483947754,
				-0.015006775967776775
			],
			"type":"VEC3"
		},
		{
			"bufferView":41,
			"componentType":5126,
			"count":192,
			"type":"VEC3"
		},
		{
			"bufferView":42,
			"componentType":5126,
			"count":192,
			"type":"VEC2"
		},
		{
			"bufferView":43,
			"componentType":5126,
			"count":192,
			"max":[
				0.07503388077020645,
				0.037516940385103226,
				0.07503388077020645
			],
			"min":[
				-0.07503388077020645,
				-0.037516940385103226,
				-0.07503388077020645
			],
			"type":"VEC3"
		},
		{
			"bufferView":44,
			"componentType":5126,
			"count":192,
			"type":"VEC3"
		},
		{
			"bufferView":45,
			"componentType":5126,
			"count":192,
			"type":"VEC2"
		},
		{
			"bufferView":46,
			"componentType":5126,
			"count":36,
			"max":[
				0.07503388077020645,
				0.40518298745155334,
				0.22510164976119995
			],
			"min":[
				-0.07503388077020645,
				-0.25099581480026245,
				-0.22510164976119995
			],
			"type":"VEC3"
		},
		{
			"bufferView":47,
			"componentType":5126,
			"count":36,
			"type":"VEC3"
		},
		{
			"bufferView":48,
			"componentType":5126,
			"count":36,
			"type":"VEC2"
		},
		{
			"bufferView":49,
			"componentType":5126,
			"count":192,
			"max":[
				0.037516940385103226,
				0.6002710461616516,
				0.037516940385103226
			],
			"min":[
				-0.037516940385103226,
				-0.6002710461616516,
				-0.037516940385103226
			],
			"type":"VEC3"
		},
		{
			"bufferView":50,
			"componentType":5126,
			"count":192,
			"type":"VEC3"
		},
		{
			"bufferView":51,
			"componentType":5126,
			"count":192,
			"type":"VEC2"
		},
		{
			"bufferView":52,
			"componentType":5126,
			"count":192,
			"max":[
				0.037516940385103226,
				0.5499999523162842,
				0.037516940385103226
			],
			"min":[
				-0.037516940385103226,
				-0.5499999523162842,
				-0.037516940385103226
			],
			"type":"VEC3"
		},
		{
			"bufferView":53,
			"componentType":5126,
			"count":192,
			"type":"VEC3"
		},
		{
			"bufferView":54,
			"componentType":5126,
			"count":192,
			"type":"VEC2"
		}
	],
	"bufferViews":[
		{
			"buffer":0,
			"byteLength":2304,
			"byteOffset":0,
			"target":34962
		},
		{
			"buffer":0,
			"byteLength":2304,
			"byteOffset":2304,
			"target":34962
		},
		{
			"buffer":0,
			"byteLength":1536,
			"byteOffset":4608,
			"target":34962
		},
		{
			"buffer":0,
			"byteLength":744,
			"byteOffset":6144,
			"target":34963
		},
		{
			"buffer":0,
			"byteLength":2304,
			"byteOffset":6888,
			"target":34962
		},
		{
			"buffer":0,
			"byteLength":2304,
			"byteOffset":9192,
			"target":34962
		},
		{
			"buffer":0,
			"byteLength":1536,
			"byteOffset":11496,
			"target":34962
		},
		{
			"buffer":0,
			"byteLength":2304,
			"byteOffset":13032,
			"target":34962
		},
		{
			"buffer":0,
			"byteLength":2304,
			"byteOffset":15336,
			"target":34962
		},
		{
			"buffer":0,
			"byteLength":1536,
			"byteOffset":17640,
			"target":34962
		},
		{
			"buffer":0,
			"byteLength":2304,
			"byteOffset":19176,
			"target":34962
		},
		{
			"buffer":0,
			"byteLength":2304,
			"byteOffset":21480,
			"target":34962
		},
		{
			"buffer":0,
			"byteLength":1536,
			"byteOffset":23784,
			"target":34962
		},
		{
			"buffer":0,
			"byteLength":2304,
			"byteOffset":25320,
			"target":34962
		},
		{
			"buffer":0,
			"byteLength":2304,
			"byteOffset":27624,
			"target":34962
		},
		{
			"buffer":0,
			"byteLength":1536,
			"byteOffset":29928,
			"target":34962
		},
		{
			"buffer":0,
			"byteLength":2304,
			"byteOffset":31464,
			"target":34962
		},
		{
			"buffer":0,
			"byteLength":2304,
			"byteOffset":33768,
			"target":34962
		},
		{
			"buffer":0,
			"byteLength":1536,
			"byteOffset":36072,
			"target":34962
		},
		{
			"buffer":0,
			"byteLength":2304,
			"byteOffset":37608,
			"target":34962
		},
		{
			"buffer":0,
			"byteLength":2304,
			"byteOffset":39912,
			"target":34962
		},
		{
			"buffer":0,
			"byteLength":1536,
			"byteOffset":42216,
			"target":34962
		},
		{
			"buffer":0,
			"byteLength":288,
			"byteOffset":43752,
			"target":34962
		},
		{
			"buffer":0,
			"byteLength":288,
			"byteOffset":44040,
			"target":34962
		},
		{
			"buffer":0,
			"byteLength":192,
			"byteOffset":44328,
			"target":34962
		},
		{
			"buffer":0,
			"byteLength":72,
			"byteOffset":44520,
			"target":34963
		},
		{
			"buffer":0,
			"byteLength":13056,
			"byteOffset":44592,
			"target":34962
		},
		{
			"buffer":0,
			"byteLength":13056,
			"byteOffset":57648,
			"target":34962
		},
		{
			"buffer":0,
			"byteLength":8704,
			"byteOffset":70704,
			"target":34962
		},
		{
			"buffer":0,
			"byteLength":3432,
			"byteOffset":79408,
			"target":34963
		},
		{
			"buffer":0,
			"byteLength":432,
			"byteOffset":82840,
			"target":34962
		},
		{
			"buffer":0,
			"byteLength":432,
			"byteOffset":83272,
			"target":34962
		},
		{
			"buffer":0,
			"byteLength":288,
			"byteOffset":83704,
			"target":34962
		},
		{
			"buffer":0,
			"byteLength":120,
			"byteOffset":83992,
			"target":34963
		},
		{
			"buffer":0,
			"byteLength":2304,
			"byteOffset":84112,
			"target":34962
		},
		{
			"buffer":0,
			"byteLength":2304,
			"byteOffset":86416,
			"target":34962
		},
		{
			"buffer":0,
			"byteLength":1536,
			"byteOffset":88720,
			"target":34962
		},
		{
			"buffer":0,
			"byteLength":2304,
			"byteOffset":90256,
			"target":34962
		},
		{
			"buffer":0,
			"byteLength":2304,
			"byteOffset":92560,
			"target":34962
		},
		{
			"buffer":0,
			"byteLength":1536,
			"byteOffset":94864,
			"target":34962
		},
		{
			"buffer":0,
			"byteLength":2304,
			"byteOffset":96400,
			"target":34962
		},
		{
			"buffer":0,
			"byteLength":2304,
			"byteOffset":98704,
			"target":34962
		},
		{
			"buffer":0,
			"byteLength":1536,
			"byteOffset":101008,
			"target":34962
		},
		{
			"buffer":0,
			"byteLength":2304,
			"byteOffset":102544,
			"target":34962
		},
		{
			"buffer":0,
			"byteLength":2304,
			"byteOffset":104848,
			"target":34962
		},
		{
			"buffer":0,
			"byteLength":1536,
			"byteOffset":107152,
			"target":34962
		},
		{
			"buffer":0,
			"byteLength":432,
			"byteOffset":108688,
			"target":34962
		},
		{
			"buffer":0,
			"byteLength":432,
			"byteOffset":109120,
			"target":34962
		},
		{
			"buffer":0,
			"byteLength":288,
			"byteOffset":109552,
			"target":34962
		},
		{
			"buffer":0,
			"byteLength":2304,
			"byteOffset":109840,
			"target":34962
		},
		{
			"buffer":0,
			"byteLength":2304,
			"byteOffset":112144,
			"target":34962
		},
		{
			"buffer":0,
			"byteLength":1536,
			"byteOffset":114448,
			"target":34962
		},
		{
			"buffer":0,
			"byteLength":2304,
			"byteOffset":115984,
			"target":34962
		},
		{
			"buffer":0,
			"byteLength":2304,
			"byteOffset":118288,
			"target":34962
		},
		{
			"buffer":0,
			"byteLength":1536,
			"byteOffset":120592,
			"target":34962
		}
	],
	"buffers":[
		{
			"byteLength":122128,
			"uri":"construction.bin"
		}
	]
}
