# Blender 3.4.1
# www.blender.org
mtllib storage.mtl
o Cube
v 1.000000 1.000000 -1.000000
v 1.000000 0.000000 -1.000000
v 1.000000 1.000000 1.000000
v 1.000000 0.000000 1.000000
v -1.000000 1.000000 -1.000000
v -1.000000 0.000000 -1.000000
v -1.000000 1.000000 1.000000
v -1.000000 0.000000 1.000000
v -1.000000 0.000000 0.300000
v 1.000000 1.000000 0.300000
v -1.000000 1.000000 0.300000
v 1.000000 0.000000 0.300000
v -1.000000 1.000000 -0.350000
v 1.000000 0.000000 -0.350000
v -1.000000 0.000000 -0.350000
v 1.000000 1.000000 -0.350000
v 1.000000 0.700000 -1.000000
v -1.000000 0.700000 1.000000
v 1.000000 0.700000 1.000000
v -1.000000 0.700000 -1.000000
v 1.000000 0.700000 0.300000
v -1.000000 0.700000 0.300000
v 1.000000 0.700000 -0.350000
v -1.000000 0.700000 -0.350000
vn -0.0000 1.0000 -0.0000
vn -0.0000 -0.0000 1.0000
vn -1.0000 -0.0000 -0.0000
vn -0.0000 -1.0000 -0.0000
vn 1.0000 -0.0000 -0.0000
vn -0.0000 -0.0000 -1.0000
vt 0.625000 0.500000
vt 0.375000 0.500000
vt 0.625000 0.750000
vt 0.375000 0.750000
vt 0.625000 0.250000
vt 0.875000 0.500000
vt 0.125000 0.500000
vt 0.375000 0.250000
vt 0.875000 0.750000
vt 0.625000 1.000000
vt 0.625000 0.000000
vt 0.125000 0.750000
vt 0.375000 0.000000
vt 0.375000 1.000000
vt 0.125000 0.625000
vt 0.375000 0.125000
vt 0.625000 0.625000
vt 0.875000 0.625000
vt 0.625000 0.125000
vt 0.375000 0.625000
vt 0.875000 0.562500
vt 0.625000 0.187500
vt 0.375000 0.562500
vt 0.125000 0.562500
vt 0.375000 0.187500
vt 0.625000 0.562500
vt 0.548574 0.500000
vt 0.548574 0.000000
vt 0.548574 1.000000
vt 0.548574 0.750000
vt 0.548574 0.250000
vt 0.548574 0.625000
vt 0.548574 0.125000
vt 0.548574 0.562500
vt 0.548574 0.187500
s 0
usemtl Wall
f 10/17/1 11/18/1 7/9/1 3/3/1
f 19/30/2 3/3/2 7/10/2 18/29/2
f 24/35/3 13/22/3 5/5/3 20/31/3
f 9/15/4 12/20/4 4/4/4 8/12/4
f 21/32/5 10/17/5 3/3/5 19/30/5
f 20/31/6 5/5/6 1/1/6 17/27/6
f 23/34/5 16/26/5 10/17/5 21/32/5
f 15/24/4 14/23/4 12/20/4 9/15/4
f 18/28/3 7/11/3 11/19/3 22/33/3
f 16/26/1 13/21/1 11/18/1 10/17/1
f 1/1/1 5/6/1 13/21/1 16/26/1
f 6/7/4 2/2/4 14/23/4 15/24/4
f 17/27/5 1/1/5 16/26/5 23/34/5
f 22/33/3 11/19/3 13/22/3 24/35/3
f 9/16/3 22/33/3 24/35/3 15/25/3
f 2/2/5 17/27/5 23/34/5 14/23/5
f 8/13/3 18/28/3 22/33/3 9/16/3
f 6/8/6 20/31/6 17/27/6 2/2/6
f 12/20/5 21/32/5 19/30/5 4/4/5
f 15/25/3 24/35/3 20/31/3 6/8/3
f 4/4/2 19/30/2 18/29/2 8/14/2
